<?xml version="1.0" encoding="utf-8"?>
<!-- Generator: Adobe Illustrator 18.0.0, SVG Export Plug-In . SVG Version: 6.00 Build 0)  -->
<!DOCTYPE svg PUBLIC "-//W3C//DTD SVG 1.1//EN" "http://www.w3.org/Graphics/SVG/1.1/DTD/svg11.dtd">
<svg version="1.1" id="Layer_1" xmlns="http://www.w3.org/2000/svg" xmlns:xlink="http://www.w3.org/1999/xlink" x="0px" y="0px"
	 viewBox="0 0 232.6 194.4" enable-background="new 0 0 232.6 194.4" xml:space="preserve">
<path fill="#5A9EC1" d="M221.9,157.9h-1.1c0-1.7-0.1-3.4-0.2-5.2c0-0.5-0.1-1.1-0.2-1.7c-0.1-1.2-0.2-2.5-0.3-3.7
	c-0.1-0.7-0.2-1.4-0.3-2c-0.2-1.2-0.3-2.4-0.5-3.6c-0.1-0.7-0.3-1.4-0.4-2.2c-0.2-1.2-0.5-2.4-0.7-3.6c-0.2-0.7-0.4-1.5-0.5-2.2
	c-0.3-1.2-0.6-2.4-0.9-3.6c-0.2-0.8-0.4-1.5-0.7-2.3c-0.4-1.2-0.7-2.4-1.1-3.6c-0.3-0.8-0.5-1.5-0.8-2.3c-0.4-1.2-0.8-2.4-1.3-3.6
	c-0.3-0.8-0.6-1.5-0.9-2.3c-0.5-1.2-1-2.4-1.5-3.5c-0.1-0.3-0.2-0.5-0.3-0.8c0,0,0,0,0,0.1c-6.5-14.6-16-28.5-28.5-38.6
	c-5.7-4.7-12-8.6-18.7-11.8L160.6,46l-2.1,0.3c-9.9-4.6-19.3-6.9-27.9-7.8l-0.5-6.5h-7.4h-7.4l-3.9,47.7l3.4-41.3
	C97.8,39.9,87,46.3,87,46.3l-2.1-0.4l-2.8,15.4c-3.3,1.7-6.6,3.5-9.7,5.5c0,0,0,0,0,0c-0.2,0.1-0.3,0.2-0.5,0.3
	c-2.2,1.4-4.3,3-6.4,4.6c-0.3,0.2-0.5,0.4-0.8,0.6c-2.1,1.6-4.1,3.4-6,5.2c0,0-0.1,0.1-0.1,0.1c-1.9,1.8-3.8,3.7-5.5,5.6
	c-0.3,0.3-0.6,0.7-0.9,1c-1.7,1.9-3.3,3.8-4.8,5.8c-0.3,0.3-0.5,0.7-0.8,1c-1.5,2-3,4.1-4.4,6.2c0,0.1-0.1,0.1-0.1,0.2
	c-1.4,2.2-2.7,4.4-3.9,6.6c-0.2,0.4-0.5,0.9-0.7,1.3c-1.2,2.2-2.2,4.4-3.2,6.6c-0.2,0.4-0.4,0.9-0.6,1.3c-1,2.3-2,4.7-2.8,7.1
	c-4.2,12.1-6.3,24.7-6.3,37.4h-1c0,0-8.9,0.3-8.8,14.1h107.8h107.8C230.7,158.2,221.9,157.9,221.9,157.9z"/>
<g>
	<polygon fill="#FFD832" points="121.8,66.8 117.9,19.1 110.5,19.1 103.2,19.1 99.2,66.8 	"/>
	<path fill="#FDBB35" d="M208.5,144.9c0-26.4-13.3-63.7-39.1-84.8c-6.4-5.2-13.5-9.5-21-12.9l-2.1-13.9c-9.9-4.6-19.3-6.9-27.9-7.8
		l3.4,41.2H99.2l3.4-41.3c-17.1,1.5-27.9,7.9-27.9,7.9l-2.5,13.9c-25.9,11.9-44.7,34.9-53.5,60.3c-4.2,12.1-6.3,24.7-6.3,37.4H208.5
		"/>
	<path fill="#FAA435" d="M197.9,98.7c0.3,5.5,0,11.2-1.9,16.4c-3.3,8.9-6.1,12.8-15.3,13.7c-38.2,3.7-42.6,1.3-116.8,1.6
		c-7.2,0-18.5-0.6-25-4.4c-6.9-4-7.7-12.9-5.9-20c2.4-9.5,9.7-16.3,15.6-23.7c3.3-4.2,6.4-8.7,7.8-13.9c1.3-4.8,2.5-9.7,3.9-14.5
		c-19.7,12.8-34.1,32.4-41.5,53.6c-4.2,12.1-6.3,24.7-6.3,37.4h196C208.5,131.2,204.9,114.5,197.9,98.7z"/>
	<line fill="none" stroke="#CC782A" stroke-width="4.198" stroke-miterlimit="10" x1="146.3" y1="33.3" x2="153.8" y2="81.8"/>
	<line fill="none" stroke="#CC782A" stroke-width="4.198" stroke-miterlimit="10" x1="66.1" y1="81.8" x2="74.8" y2="33.3"/>
	<path fill="#FFD832" d="M209.6,144.9h-99.1h-99c0,0-8.9,0.3-8.8,14.1h107.8h107.8C218.4,145.2,209.6,144.9,209.6,144.9z"/>
</g>
</svg>
